<svg width="1362" height="347" viewBox="0 0 1362 347" fill="none" xmlns="http://www.w3.org/2000/svg">
<g clip-path="url(#clip0_502_84)">
<path d="M68.2188 214.164V78.6172C68.2188 56.1591 86.4247 37.9531 108.883 37.9531H68.2188C45.7607 37.9531 27.5547 56.1591 27.5547 78.6172V214.164C27.5547 236.622 45.7607 254.828 68.2188 254.828H108.883C86.4247 254.828 68.2188 236.622 68.2188 214.164Z" fill="#CEE1F2"/>
<path d="M239.008 37.9531H68.2188C45.7607 37.9531 27.5547 56.1591 27.5547 78.6172V214.164C27.5547 236.622 45.7607 254.828 68.2188 254.828H239.008" stroke="#334155" stroke-width="40" stroke-miterlimit="10" stroke-linecap="round" stroke-linejoin="round"/>
<path d="M293.227 37.9531H306.781C329.239 37.9531 347.445 56.1591 347.445 78.6172V214.164C347.445 236.622 329.239 254.828 306.781 254.828H293.227" stroke="#334155" stroke-width="40" stroke-miterlimit="10" stroke-linecap="round" stroke-linejoin="round"/>
<path d="M249.174 13.5547V279.227" stroke="#334155" stroke-width="20" stroke-miterlimit="10" stroke-linecap="round" stroke-linejoin="round"/>
<path d="M36 326H87.5078" stroke="#334155" stroke-width="40" stroke-miterlimit="10" stroke-linecap="round" stroke-linejoin="round"/>
<path d="M129 303H156.109" stroke="#334155" stroke-width="40" stroke-miterlimit="10" stroke-linecap="round" stroke-linejoin="round"/>
<path d="M197 326H248.508" stroke="#334155" stroke-width="40" stroke-miterlimit="10" stroke-linecap="round" stroke-linejoin="round"/>
<path d="M295 309H349.219" stroke="#FA342C" stroke-width="40" stroke-miterlimit="10" stroke-linecap="round" stroke-linejoin="round"/>
<mask id="mask0_502_84" style="mask-type:luminance" maskUnits="userSpaceOnUse" x="21" y="-11" width="266" height="266">
<path d="M21.4551 -10.8437H286.901V254.602H21.4551V-10.8437Z" fill="white"/>
</mask>
<g mask="url(#mask0_502_84)">
<path d="M43.8203 141.119C52.0412 141.119 59.1845 147.412 61.0802 155.419L65.3421 174.421C67.7526 184.604 82.4394 183.953 83.942 173.598L97.1121 81.1678C98.6557 70.5296 113.996 70.5414 115.523 81.1818L134.01 210.658C135.613 221.826 151.8 221.583 153.067 210.372L155.646 187.413" stroke="#334155" stroke-width="15" stroke-miterlimit="10" stroke-linecap="round" stroke-linejoin="round"/>
<path d="M157.002 170.219L161.393 131.41C162.776 119.181 180.379 118.719 182.402 130.859L190.536 180.471C192.663 193.239 210.753 193.95 213.876 181.387L217.554 165.782C220.64 153.367 231.788 143.778 244.582 143.778" stroke="#FA342C" stroke-width="15" stroke-miterlimit="10" stroke-linecap="round" stroke-linejoin="round"/>
</g>
<g clip-path="url(#clip1_502_84)">
<path d="M318.253 206.566C318.377 207.599 318.086 208.639 317.443 209.456C316.801 210.274 315.86 210.804 314.828 210.928C313.795 211.052 312.755 210.761 311.938 210.118C311.12 209.476 310.59 208.535 310.466 207.502C310.391 206.882 310.466 206.253 310.687 205.669C310.907 205.085 311.266 204.562 311.733 204.147C312.326 203.583 313.089 203.231 313.903 203.148C314.933 203.026 315.969 203.318 316.785 203.958C317.6 204.599 318.128 205.537 318.253 206.566Z" fill="#FA342C"/>
<path d="M303.618 195.322C303.028 195.892 302.267 196.25 301.452 196.34C300.419 196.464 299.38 196.173 298.562 195.53C297.744 194.888 297.215 193.947 297.091 192.915C296.966 191.882 297.258 190.842 297.9 190.025C298.542 189.207 299.483 188.677 300.516 188.553C301.056 188.485 301.605 188.546 302.118 188.731C302.848 188.939 303.5 189.361 303.99 189.941C304.481 190.522 304.787 191.235 304.87 191.99C304.943 192.605 304.867 193.229 304.649 193.808C304.431 194.388 304.078 194.907 303.618 195.322Z" fill="#FA342C"/>
<path d="M310.621 173.097C310.713 173.622 310.697 174.16 310.575 174.678C310.452 175.196 310.225 175.684 309.908 176.111C309.59 176.539 309.189 176.897 308.729 177.164C308.268 177.432 307.758 177.602 307.229 177.666C306.7 177.729 306.164 177.684 305.653 177.533C305.143 177.382 304.668 177.129 304.259 176.789C303.849 176.448 303.513 176.028 303.272 175.553C303.03 175.079 302.888 174.56 302.853 174.029C302.777 173.411 302.851 172.784 303.068 172.201C303.285 171.618 303.639 171.095 304.101 170.678C304.69 170.108 305.452 169.75 306.267 169.66C306.778 169.599 307.297 169.64 307.793 169.78C308.289 169.92 308.752 170.156 309.157 170.475C309.561 170.795 309.899 171.191 310.15 171.641C310.401 172.09 310.561 172.586 310.621 173.097Z" fill="#FA342C"/>
<path d="M295.991 161.872C295.487 162.343 294.869 162.673 294.197 162.83C293.526 162.986 292.825 162.963 292.165 162.762C291.506 162.562 290.911 162.191 290.44 161.688C289.969 161.184 289.638 160.566 289.482 159.894C289.451 159.76 289.43 159.624 289.418 159.486C289.355 158.976 289.393 158.458 289.531 157.962C289.669 157.467 289.903 157.003 290.221 156.599C290.539 156.195 290.933 155.857 291.382 155.606C291.831 155.355 292.326 155.196 292.837 155.137C293.125 155.097 293.418 155.097 293.706 155.137C294.591 155.218 295.421 155.603 296.055 156.226C296.689 156.849 297.089 157.671 297.186 158.555C297.26 159.163 297.19 159.779 296.983 160.356C296.775 160.932 296.435 161.451 295.991 161.872Z" fill="#FA342C"/>
<path d="M278.138 162.891C278.2 163.402 278.16 163.92 278.021 164.416C277.882 164.912 277.647 165.376 277.329 165.781C277.011 166.186 276.616 166.524 276.167 166.776C275.718 167.029 275.224 167.19 274.713 167.252C274.202 167.313 273.683 167.273 273.187 167.135C272.691 166.996 272.228 166.761 271.823 166.443C271.418 166.124 271.079 165.73 270.827 165.281C270.575 164.832 270.413 164.338 270.352 163.827C270.257 163.071 270.389 162.305 270.729 161.624C271.07 160.944 271.605 160.379 272.266 160.002L272.262 159.983C272.726 159.701 273.248 159.527 273.789 159.472C274.749 159.357 275.717 159.6 276.508 160.156C277.3 160.712 277.857 161.54 278.074 162.482C278.105 162.617 278.127 162.753 278.138 162.891Z" fill="#FA342C"/>
<path d="M298.99 138.85C299.106 139.882 298.811 140.919 298.167 141.734C297.523 142.55 296.584 143.078 295.552 143.204C295.283 143.242 295.008 143.237 294.74 143.189C294.01 143.116 293.316 142.839 292.737 142.389C292.158 141.939 291.718 141.334 291.467 140.644C291.217 139.955 291.167 139.209 291.322 138.492C291.477 137.775 291.832 137.117 292.345 136.593C292.858 136.069 293.509 135.701 294.222 135.53C294.936 135.36 295.683 135.395 296.377 135.631C297.072 135.867 297.686 136.294 298.148 136.864C298.61 137.433 298.902 138.122 298.99 138.85Z" fill="#FA342C"/>
<path d="M266.14 149.7C265.677 149.986 265.158 150.167 264.617 150.23C263.585 150.354 262.545 150.063 261.727 149.42C260.909 148.778 260.38 147.837 260.256 146.805C260.132 145.772 260.423 144.732 261.065 143.915C261.708 143.097 262.649 142.567 263.681 142.443C264.713 142.327 265.75 142.623 266.565 143.267C267.38 143.91 267.909 144.85 268.035 145.88C268.124 146.632 267.992 147.394 267.655 148.072C267.319 148.75 266.792 149.316 266.14 149.7Z" fill="#FA342C"/>
<path d="M314.671 127.025C314.774 127.881 314.593 128.747 314.154 129.49C313.715 130.232 313.043 130.809 312.243 131.131C311.443 131.452 310.559 131.501 309.728 131.269C308.897 131.037 308.166 130.537 307.649 129.848C307.23 129.298 306.966 128.647 306.884 127.961C306.823 127.449 306.862 126.931 307.001 126.435C307.14 125.939 307.375 125.476 307.693 125.071C308.336 124.253 309.277 123.724 310.309 123.599C311.342 123.475 312.381 123.766 313.199 124.409C314.017 125.051 314.546 125.992 314.671 127.025Z" fill="#FA342C"/>
<path d="M280.624 133.025C280.36 133.659 279.931 134.21 279.381 134.62C278.832 135.031 278.182 135.286 277.5 135.359C276.961 135.431 276.413 135.384 275.894 135.224C275.375 135.063 274.897 134.792 274.493 134.428C273.742 133.803 273.261 132.912 273.15 131.941C273.075 131.342 273.139 130.734 273.337 130.164C273.535 129.594 273.862 129.077 274.293 128.654C274.723 128.232 275.246 127.914 275.82 127.727C276.393 127.539 277.002 127.487 277.6 127.573C278.197 127.66 278.766 127.883 279.263 128.226C279.759 128.569 280.17 129.022 280.463 129.55C280.755 130.078 280.922 130.666 280.95 131.269C280.978 131.872 280.866 132.473 280.624 133.025Z" fill="#FA342C"/>
<path d="M278.551 111.358C278.644 112.128 278.507 112.908 278.157 113.6C277.807 114.291 277.259 114.864 276.584 115.244C275.908 115.624 275.135 115.796 274.362 115.736C273.589 115.677 272.851 115.389 272.241 114.91C271.632 114.431 271.178 113.782 270.938 113.045C270.697 112.308 270.681 111.516 270.891 110.77C271.101 110.023 271.527 109.356 272.117 108.852C272.706 108.349 273.431 108.031 274.201 107.94C274.881 107.853 275.572 107.948 276.202 108.218C276.832 108.487 277.379 108.92 277.786 109.471C278.213 110.016 278.478 110.67 278.551 111.358Z" fill="#FA342C"/>
<path d="M293.919 101.554C293.645 102.174 293.213 102.712 292.667 103.114C292.12 103.516 291.478 103.768 290.804 103.844C290.13 103.925 289.446 103.83 288.82 103.568C288.193 103.307 287.645 102.887 287.229 102.351C286.793 101.796 286.518 101.132 286.436 100.431C286.311 99.3985 286.603 98.3589 287.245 97.541C287.887 96.7231 288.828 96.1939 289.861 96.0698C290.893 95.9457 291.933 96.2368 292.751 96.8792C293.569 97.5215 294.098 98.4625 294.222 99.495C294.303 100.196 294.199 100.906 293.919 101.554Z" fill="#FA342C"/>
<path d="M312.285 107.378C312.372 107.901 312.352 108.437 312.226 108.952C312.1 109.467 311.871 109.952 311.552 110.376C311.234 110.8 310.832 111.155 310.373 111.419C309.913 111.683 309.404 111.851 308.877 111.913C308.35 111.975 307.816 111.929 307.308 111.779C306.799 111.628 306.327 111.376 305.918 111.037C305.51 110.698 305.175 110.28 304.934 109.808C304.692 109.336 304.548 108.819 304.512 108.29C304.433 107.61 304.537 106.921 304.811 106.294C305.08 105.663 305.509 105.113 306.057 104.701C306.604 104.288 307.25 104.026 307.93 103.941C308.613 103.855 309.306 103.953 309.937 104.226C310.568 104.498 311.115 104.935 311.52 105.491C311.947 106.036 312.212 106.69 312.285 107.378Z" fill="#FA342C"/>
<path d="M327.966 95.553C328.087 96.5827 327.796 97.6188 327.155 98.4341C326.515 99.2494 325.577 99.7774 324.547 99.9023C323.868 99.9898 323.177 99.8939 322.547 99.6247C321.916 99.3555 321.369 98.9227 320.963 98.3712C320.536 97.8264 320.271 97.1724 320.198 96.4842C320.106 95.9597 320.121 95.4219 320.244 94.9037C320.367 94.3855 320.594 93.8977 320.911 93.4702C321.228 93.0426 321.63 92.6843 322.09 92.4171C322.551 92.1498 323.061 91.9793 323.59 91.9159C324.119 91.8525 324.655 91.8976 325.166 92.0484C325.676 92.1992 326.151 92.4525 326.56 92.7929C326.97 93.1333 327.306 93.5536 327.547 94.0282C327.789 94.5027 327.931 95.0216 327.966 95.553Z" fill="#FA342C"/>
<path d="M298.225 136.963L307.649 129.848" stroke="#303E58" stroke-width="5" stroke-linecap="round" stroke-linejoin="round"/>
<path d="M304.811 106.294L293.919 101.554" stroke="#303E58" stroke-width="5" stroke-linecap="round" stroke-linejoin="round"/>
<path d="M276.568 127.591L275.133 115.708" stroke="#303E58" stroke-width="5" stroke-linecap="round" stroke-linejoin="round"/>
<path d="M277.786 109.471L287.229 102.351" stroke="#303E58" stroke-width="5" stroke-linecap="round" stroke-linejoin="round"/>
<path d="M310.298 123.592L308.866 111.727" stroke="#303E58" stroke-width="5" stroke-linecap="round" stroke-linejoin="round"/>
<path d="M311.52 105.491L320.963 98.3711" stroke="#303E58" stroke-width="5" stroke-linecap="round" stroke-linejoin="round"/>
<path d="M291.497 137.77L280.624 133.025" stroke="#303E58" stroke-width="5" stroke-linecap="round" stroke-linejoin="round"/>
<path d="M293.706 155.137L294.74 143.189" stroke="#303E58" stroke-width="5" stroke-linecap="round" stroke-linejoin="round"/>
<path d="M289.482 159.894L278.074 162.482" stroke="#303E58" stroke-width="5" stroke-linecap="round" stroke-linejoin="round"/>
<path d="M304.101 170.678L295.991 161.872" stroke="#303E58" stroke-width="5" stroke-linecap="round" stroke-linejoin="round"/>
<path d="M302.118 188.731L305.592 177.312" stroke="#303E58" stroke-width="5" stroke-linecap="round" stroke-linejoin="round"/>
<path d="M311.733 204.147L303.618 195.322" stroke="#303E58" stroke-width="5" stroke-linecap="round" stroke-linejoin="round"/>
<path d="M266.14 149.7L272.261 159.983" stroke="#303E58" stroke-width="5" stroke-linecap="round" stroke-linejoin="round"/>
<path d="M266.712 143.388L274.493 134.428" stroke="#303E58" stroke-width="5" stroke-linecap="round" stroke-linejoin="round"/>
<path d="M308.866 111.727C309.896 111.602 310.834 111.074 311.474 110.259C312.115 109.444 312.406 108.408 312.285 107.378C312.212 106.69 311.947 106.036 311.52 105.491C311.115 104.935 310.568 104.498 309.937 104.226C309.306 103.953 308.613 103.855 307.93 103.941C307.25 104.026 306.604 104.288 306.057 104.701C305.509 105.113 305.08 105.663 304.811 106.294C304.537 106.921 304.433 107.61 304.512 108.29C304.572 108.802 304.732 109.297 304.983 109.747C305.234 110.197 305.572 110.593 305.976 110.912C306.381 111.232 306.844 111.468 307.34 111.608C307.836 111.748 308.355 111.788 308.866 111.727Z" stroke="#303E58" stroke-width="1.5" stroke-linecap="round" stroke-linejoin="round"/>
<path d="M324.547 99.9022C325.317 99.8111 326.043 99.4936 326.632 98.9898C327.222 98.4861 327.648 97.8188 327.858 97.0725C328.068 96.3261 328.052 95.5343 327.811 94.7972C327.571 94.0601 327.117 93.4109 326.508 92.9319C325.898 92.4528 325.16 92.1654 324.387 92.106C323.614 92.0466 322.841 92.218 322.165 92.5983C321.49 92.9787 320.942 93.5509 320.592 94.2426C320.242 94.9344 320.105 95.7144 320.198 96.4841C320.271 97.1724 320.536 97.8263 320.963 98.3711C321.37 98.9226 321.916 99.3554 322.547 99.6246C323.177 99.8938 323.868 99.9897 324.547 99.9022Z" stroke="#303E58" stroke-width="1.5" stroke-linecap="round" stroke-linejoin="round"/>
<path d="M307.649 129.848C308.222 130.605 309.051 131.129 309.982 131.32C310.912 131.512 311.881 131.359 312.707 130.89C313.533 130.421 314.161 129.668 314.473 128.77C314.785 127.873 314.76 126.893 314.403 126.012C314.046 125.132 313.382 124.411 312.533 123.984C311.685 123.557 310.71 123.453 309.79 123.691C308.87 123.93 308.069 124.494 307.534 125.279C306.999 126.065 306.769 127.018 306.884 127.961C306.968 128.646 307.232 129.297 307.649 129.848Z" stroke="#303E58" stroke-width="1.5" stroke-linecap="round" stroke-linejoin="round"/>
<path d="M287.229 102.351C287.645 102.887 288.193 103.307 288.82 103.568C289.446 103.83 290.13 103.925 290.804 103.844C291.478 103.768 292.12 103.516 292.667 103.114C293.213 102.712 293.645 102.174 293.918 101.554C294.198 100.906 294.303 100.196 294.222 99.495C294.098 98.4625 293.569 97.5215 292.751 96.8792C291.933 96.2368 290.893 95.9457 289.861 96.0698C288.828 96.1939 287.887 96.7231 287.245 97.541C286.602 98.3589 286.311 99.3985 286.435 100.431C286.518 101.132 286.793 101.796 287.229 102.351Z" stroke="#303E58" stroke-width="1.5" stroke-linecap="round" stroke-linejoin="round"/>
<path d="M275.132 115.708C275.643 115.649 276.138 115.489 276.587 115.238C277.036 114.987 277.43 114.65 277.748 114.245C278.066 113.841 278.3 113.378 278.438 112.882C278.576 112.386 278.614 111.869 278.551 111.358C278.478 110.67 278.213 110.016 277.786 109.471C277.379 108.92 276.832 108.487 276.202 108.218C275.572 107.948 274.881 107.853 274.201 107.94C273.67 107.974 273.151 108.117 272.676 108.358C272.202 108.6 271.782 108.936 271.441 109.345C271.101 109.755 270.847 110.229 270.697 110.74C270.546 111.251 270.501 111.787 270.564 112.316C270.628 112.844 270.798 113.355 271.065 113.815C271.333 114.276 271.691 114.677 272.118 114.995C272.546 115.312 273.034 115.539 273.552 115.662C274.07 115.784 274.608 115.8 275.132 115.708Z" stroke="#303E58" stroke-width="1.5" stroke-linecap="round" stroke-linejoin="round"/>
<path d="M274.493 134.428C274.897 134.792 275.375 135.063 275.894 135.224C276.413 135.384 276.961 135.43 277.5 135.359C278.182 135.286 278.832 135.031 279.381 134.62C279.931 134.209 280.36 133.659 280.624 133.025C280.897 132.391 280.998 131.696 280.918 131.01C280.883 130.478 280.741 129.959 280.499 129.485C280.258 129.01 279.922 128.59 279.513 128.249C279.103 127.909 278.628 127.656 278.118 127.505C277.607 127.354 277.071 127.309 276.542 127.372C276.013 127.436 275.503 127.606 275.043 127.874C274.582 128.141 274.181 128.499 273.863 128.927C273.546 129.354 273.319 129.842 273.196 130.36C273.074 130.878 273.058 131.416 273.15 131.941C273.261 132.912 273.742 133.803 274.493 134.428Z" stroke="#303E58" stroke-width="1.5" stroke-linecap="round" stroke-linejoin="round"/>
<path d="M294.74 143.189C295.008 143.237 295.283 143.242 295.553 143.204C296.584 143.078 297.523 142.55 298.167 141.734C298.811 140.919 299.106 139.882 298.99 138.85C298.861 137.82 298.332 136.882 297.517 136.239C296.703 135.595 295.667 135.299 294.636 135.413C293.952 135.497 293.302 135.758 292.751 136.172C292.201 136.586 291.768 137.137 291.497 137.77C291.25 138.336 291.141 138.953 291.181 139.57C291.22 140.186 291.406 140.785 291.723 141.315C292.04 141.845 292.48 142.292 293.005 142.618C293.529 142.944 294.124 143.14 294.74 143.189Z" stroke="#303E58" stroke-width="1.5" stroke-linecap="round" stroke-linejoin="round"/>
<path d="M266.712 143.388C266.303 143.024 265.822 142.751 265.299 142.588C264.776 142.425 264.225 142.376 263.681 142.443C262.649 142.567 261.708 143.097 261.065 143.914C260.423 144.732 260.132 145.772 260.256 146.805C260.38 147.837 260.909 148.778 261.727 149.42C262.545 150.063 263.585 150.354 264.617 150.23C265.158 150.167 265.678 149.986 266.14 149.7C266.792 149.315 267.319 148.75 267.655 148.072C267.992 147.394 268.124 146.632 268.036 145.88C267.929 144.911 267.456 144.019 266.712 143.388Z" stroke="#303E58" stroke-width="1.5" stroke-linecap="round" stroke-linejoin="round"/>
<path d="M272.266 160.002C271.605 160.379 271.07 160.944 270.729 161.624C270.389 162.305 270.257 163.071 270.352 163.827C270.413 164.338 270.575 164.832 270.827 165.281C271.079 165.73 271.418 166.124 271.823 166.443C272.228 166.761 272.691 166.996 273.187 167.135C273.683 167.273 274.202 167.313 274.713 167.252C275.224 167.19 275.718 167.029 276.167 166.776C276.616 166.524 277.011 166.186 277.329 165.781C277.647 165.376 277.882 164.912 278.021 164.416C278.16 163.92 278.2 163.402 278.138 162.891C278.127 162.753 278.105 162.617 278.074 162.482C277.857 161.54 277.3 160.712 276.508 160.156C275.717 159.6 274.749 159.357 273.789 159.472C273.248 159.527 272.726 159.701 272.262 159.983L272.266 160.002Z" stroke="#303E58" stroke-width="1.5" stroke-linecap="round" stroke-linejoin="round"/>
<path d="M289.482 159.894C289.714 160.863 290.307 161.707 291.139 162.255C291.972 162.802 292.981 163.012 293.963 162.841C294.944 162.67 295.824 162.132 296.423 161.336C297.021 160.54 297.294 159.545 297.186 158.555C297.089 157.671 296.689 156.849 296.055 156.226C295.421 155.603 294.591 155.218 293.706 155.137C293.418 155.097 293.125 155.097 292.837 155.137C292.326 155.196 291.831 155.355 291.382 155.606C290.933 155.857 290.539 156.195 290.221 156.599C289.903 157.003 289.669 157.467 289.531 157.962C289.393 158.458 289.355 158.976 289.418 159.486C289.43 159.624 289.451 159.76 289.482 159.894Z" stroke="#303E58" stroke-width="1.5" stroke-linecap="round" stroke-linejoin="round"/>
<path d="M305.591 177.312C306.148 177.476 306.733 177.514 307.306 177.424C307.879 177.334 308.425 177.117 308.904 176.791C309.383 176.464 309.783 176.035 310.077 175.535C310.37 175.035 310.548 174.476 310.599 173.898C310.65 173.321 310.572 172.739 310.371 172.195C310.17 171.651 309.851 171.159 309.436 170.753C309.022 170.348 308.522 170.04 307.974 169.85C307.426 169.661 306.843 169.596 306.266 169.66C305.452 169.75 304.69 170.108 304.1 170.678C303.591 171.144 303.214 171.736 303.007 172.394C302.801 173.053 302.771 173.754 302.923 174.427C303.074 175.101 303.4 175.722 303.869 176.228C304.338 176.735 304.932 177.109 305.591 177.312Z" stroke="#303E58" stroke-width="1.5" stroke-linecap="round" stroke-linejoin="round"/>
<path d="M302.118 188.731C301.605 188.546 301.056 188.485 300.516 188.553C300.005 188.615 299.51 188.776 299.062 189.029C298.613 189.281 298.218 189.62 297.9 190.025C297.582 190.429 297.347 190.893 297.208 191.389C297.069 191.885 297.029 192.403 297.091 192.915C297.152 193.426 297.314 193.92 297.566 194.369C297.818 194.818 298.157 195.212 298.562 195.53C298.967 195.848 299.43 196.084 299.926 196.223C300.422 196.361 300.941 196.401 301.452 196.34C302.267 196.25 303.028 195.892 303.618 195.322C304.078 194.907 304.431 194.388 304.649 193.808C304.867 193.229 304.943 192.605 304.87 191.99C304.787 191.235 304.481 190.522 303.99 189.941C303.5 189.361 302.848 188.939 302.118 188.731Z" stroke="#303E58" stroke-width="1.5" stroke-linecap="round" stroke-linejoin="round"/>
<path d="M314.816 210.921C315.345 210.884 315.861 210.741 316.333 210.499C316.805 210.257 317.223 209.922 317.562 209.514C317.901 209.106 318.153 208.633 318.304 208.125C318.455 207.616 318.5 207.082 318.439 206.556C318.377 206.029 318.209 205.52 317.944 205.06C317.68 204.6 317.325 204.199 316.901 203.88C316.477 203.562 315.993 203.333 315.477 203.207C314.962 203.081 314.427 203.061 313.903 203.148C313.089 203.231 312.326 203.583 311.733 204.147C311.266 204.562 310.907 205.085 310.687 205.669C310.466 206.253 310.39 206.882 310.466 207.502C310.591 208.532 311.119 209.47 311.935 210.11C312.75 210.751 313.786 211.042 314.816 210.921Z" stroke="#303E58" stroke-width="1.5" stroke-linecap="round" stroke-linejoin="round"/>
</g>
</g>
<path d="M408.81 280V125H454.38L457.17 153.52V280H408.81ZM508.63 280V200.64H556.99V280H508.63ZM508.63 200.64C508.63 192.373 507.7 185.863 505.84 181.11C503.98 176.15 501.293 172.533 497.78 170.26C494.473 167.987 490.34 166.747 485.38 166.54C476.08 166.333 469.053 168.917 464.3 174.29C459.547 179.457 457.17 187.413 457.17 198.16H442.6C442.6 181.833 445.08 167.987 450.04 156.62C455 145.047 461.717 136.263 470.19 130.27C478.87 124.277 488.893 121.28 500.26 121.28C512.66 121.28 523.097 123.863 531.57 129.03C540.043 133.99 546.347 141.637 550.48 151.97C554.82 162.303 556.99 175.53 556.99 191.65V200.64H508.63ZM578.765 280V125H624.335L626.195 144.53C631.155 136.883 637.252 131.097 644.485 127.17C651.925 123.243 660.088 121.28 668.975 121.28C681.788 121.28 692.328 123.967 700.595 129.34C709.068 134.507 715.268 142.463 719.195 153.21C723.948 142.877 730.458 135.023 738.725 129.65C746.992 124.07 756.292 121.28 766.625 121.28C785.225 121.28 799.175 126.963 808.475 138.33C817.982 149.697 822.632 167.367 822.425 191.34V280H774.065V200.64C774.065 192.373 773.135 185.863 771.275 181.11C769.622 176.15 767.142 172.533 763.835 170.26C760.528 167.987 756.602 166.747 752.055 166.54C743.168 166.333 736.348 168.917 731.595 174.29C727.048 179.457 724.775 187.413 724.775 198.16V280H676.415V200.64C676.415 192.373 675.485 185.863 673.625 181.11C671.972 176.15 669.492 172.533 666.185 170.26C662.878 167.987 658.952 166.747 654.405 166.54C645.518 166.333 638.698 168.917 633.945 174.29C629.398 179.457 627.125 187.413 627.125 198.16V280H578.765ZM879.731 199.71C879.731 182.97 883.038 169.02 889.651 157.86C896.471 146.7 904.945 138.33 915.071 132.75C925.405 127.17 936.151 124.38 947.311 124.38V171.5C937.805 171.5 928.815 172.533 920.341 174.6C912.075 176.667 905.358 179.87 900.191 184.21C895.025 188.343 892.441 193.717 892.441 200.33L879.731 199.71ZM844.081 280V125H892.441V280H844.081Z" fill="#FA342C"/>
<path d="M992.087 217.38L984.957 175.84L1091.6 63H1137.79L992.087 217.38ZM969.767 280V63H1005.11V280H969.767ZM1097.18 280L1009.76 169.64L1035.18 147.63L1141.51 280H1097.18ZM1157.18 280V125H1191.59V280H1157.18ZM1174.54 95.55C1168.96 95.55 1164.1 93.5867 1159.97 89.66C1156.04 85.5267 1154.08 80.67 1154.08 75.09C1154.08 69.51 1156.04 64.7567 1159.97 60.83C1164.1 56.9033 1168.96 54.94 1174.54 54.94C1180.12 54.94 1184.87 56.9033 1188.8 60.83C1192.93 64.7567 1195 69.51 1195 75.09C1195 80.67 1192.93 85.5267 1188.8 89.66C1184.87 93.5867 1180.12 95.55 1174.54 95.55ZM1286.45 283.72C1270.12 283.72 1257.62 279.69 1248.94 271.63C1240.47 263.363 1236.23 251.583 1236.23 236.29V76.64H1270.64V229.78C1270.64 237.013 1272.29 242.49 1275.6 246.21C1279.11 249.93 1284.18 251.79 1290.79 251.79C1292.86 251.79 1295.13 251.377 1297.61 250.55C1300.09 249.723 1302.88 248.173 1305.98 245.9L1318.69 272.25C1313.32 275.97 1307.94 278.76 1302.57 280.62C1297.2 282.687 1291.82 283.72 1286.45 283.72ZM1210.5 154.76V125H1312.49V154.76H1210.5Z" fill="#334155"/>
<defs>
<clipPath id="clip0_502_84">
<rect width="379" height="347" fill="white"/>
</clipPath>
<clipPath id="clip1_502_84">
<rect width="125.358" height="125.358" fill="white" transform="translate(347.596 77.2617) rotate(75.6831)"/>
</clipPath>
</defs>
</svg>
