<svg width="802" height="183" viewBox="0 0 802 183" fill="none" xmlns="http://www.w3.org/2000/svg">
<g clip-path="url(#clip0_1402_9)">
<path d="M45.4929 155.114C42.3978 156.9 38.5849 156.899 35.491 155.11L9.98404 140.367C6.89242 138.58 4.98828 135.28 4.98828 131.71V102.284C4.98828 98.7108 6.89524 95.4089 9.99051 93.6229L35.4932 78.9076C38.586 77.123 42.3958 77.123 45.4886 78.9076L70.9922 93.6229C74.0875 95.4089 75.9945 98.7109 75.9945 102.285V131.74C75.9945 135.313 74.0875 138.615 70.9922 140.401L45.4929 155.114ZM10.6684 128.439C10.6684 132.012 12.5743 135.313 15.6681 137.1L35.4906 148.545C38.5848 150.331 42.397 150.331 45.4912 148.545L65.3137 137.1C68.4075 135.313 70.3134 132.012 70.3134 128.439V105.548C70.3134 101.976 68.4075 98.6748 65.3137 96.8884L45.4912 85.443C42.397 83.6565 38.5848 83.6565 35.4906 85.443L15.6681 96.8884C12.5743 98.6748 10.6684 101.976 10.6684 105.548V128.439Z" fill="black"/>
<path d="M88.7766 85.8374L91.6162 90.7572L74.582 100.59L71.7415 95.6697L88.7766 85.8374Z" fill="black"/>
<path d="M74.5718 56.3269L91.6049 66.1613L88.7643 71.0811L71.7312 61.2467L74.5718 56.3269Z" fill="black"/>
<path d="M112.233 98.5264C109.141 100.31 105.333 100.31 102.24 98.5264L92.3585 92.8267C89.2624 91.041 87.3547 87.7385 87.3547 84.1643V72.7469C87.3547 69.1727 89.2624 65.8703 92.3585 64.0845L102.24 58.3849C105.333 56.6014 109.141 56.6014 112.233 58.3849L122.115 64.0845C125.211 65.8703 127.119 69.1727 127.119 72.747V84.1643C127.119 87.7385 125.211 91.041 122.115 92.8267L112.233 98.5264ZM93.0359 80.9021C93.0359 84.4743 94.9414 87.7752 98.0347 89.5617L102.236 91.9878C105.33 93.775 109.143 93.775 112.238 91.9878L116.439 89.5617C119.532 87.7752 121.438 84.4743 121.438 80.9021V76.0445C121.438 72.4724 119.532 69.1714 116.439 67.3849L112.238 64.9588C109.143 63.1716 105.33 63.1716 102.236 64.9588L98.0347 67.3849C94.9414 69.1714 93.0359 72.4724 93.0359 76.0445V80.9021Z" fill="black"/>
<path d="M61.1087 69.0232C58.0166 70.8067 54.2083 70.8067 51.1162 69.0232L41.2342 63.3235C38.1381 61.5378 36.2305 58.2353 36.2305 54.6611V43.2438C36.2305 39.6696 38.1381 36.3671 41.2342 34.5814L51.1162 28.8817C54.2083 27.0983 58.0166 27.0983 61.1087 28.8817L70.9907 34.5814C74.0868 36.3671 75.9945 39.6696 75.9945 43.2438V54.6611C75.9945 58.2353 74.0868 61.5378 70.9907 63.3236L61.1087 69.0232ZM41.9116 51.3636C41.9116 54.9357 43.8171 58.2366 46.9105 60.0231L51.1113 62.4492C54.2059 64.2365 58.019 64.2365 61.1136 62.4492L65.3145 60.0231C68.4078 58.2366 70.3133 54.9357 70.3133 51.3636V46.5064C70.3133 42.934 68.4076 39.6329 65.314 37.8465L61.1132 35.4207C58.0188 33.6338 54.2061 33.6338 51.1118 35.4207L46.9109 37.8465C43.8173 39.6329 41.9116 42.934 41.9116 46.5064V51.3636Z" fill="black"/>
</g>
<path d="M159.225 149C158.258 149 157.388 148.758 156.615 148.275C155.938 147.695 155.6 146.922 155.6 145.955V46.05C155.6 44.89 155.938 44.1167 156.615 43.73C157.388 43.2467 158.258 43.005 159.225 43.005C160.095 43.005 160.868 43.3433 161.545 44.02C162.318 44.6 162.995 45.3733 163.575 46.34C164.155 47.21 164.638 48.08 165.025 48.95L207.075 131.745V45.905C207.075 44.9383 207.413 44.2133 208.09 43.73C208.863 43.2467 209.733 43.005 210.7 43.005C211.57 43.005 212.392 43.2467 213.165 43.73C213.938 44.2133 214.325 44.9383 214.325 45.905V145.955C214.325 146.922 213.938 147.695 213.165 148.275C212.392 148.758 211.57 149 210.7 149C209.54 149 208.525 148.42 207.655 147.26C206.785 146.003 206.06 144.795 205.48 143.635L162.85 60.115V145.955C162.85 146.922 162.463 147.695 161.69 148.275C160.917 148.758 160.095 149 159.225 149ZM238.171 149C237.204 149 236.334 148.758 235.561 148.275C234.884 147.695 234.546 146.922 234.546 145.955V46.485C234.546 45.1317 234.884 44.2133 235.561 43.73C236.334 43.2467 237.204 43.005 238.171 43.005C239.041 43.005 239.814 43.3433 240.491 44.02C241.264 44.6 241.941 45.3733 242.521 46.34C243.197 47.21 243.729 48.08 244.116 48.95L270.651 100.86L297.476 48.95C297.959 48.08 298.491 47.21 299.071 46.34C299.651 45.3733 300.327 44.6 301.101 44.02C301.874 43.3433 302.647 43.005 303.421 43.005C304.484 43.005 305.354 43.2467 306.031 43.73C306.707 44.2133 307.046 45.1317 307.046 46.485V145.955C307.046 146.922 306.659 147.695 305.886 148.275C305.209 148.758 304.387 149 303.421 149C302.551 149 301.729 148.758 300.956 148.275C300.182 147.695 299.796 146.922 299.796 145.955V59.535L273.986 108.835C273.502 109.898 272.971 110.672 272.391 111.155C271.811 111.542 271.231 111.735 270.651 111.735C270.167 111.735 269.636 111.542 269.056 111.155C268.476 110.672 267.944 109.898 267.461 108.835L241.796 59.245V145.955C241.796 146.922 241.409 147.695 240.636 148.275C239.862 148.758 239.041 149 238.171 149ZM382.033 149.145C380.97 149.145 380.052 148.565 379.278 147.405C378.602 146.148 377.973 145.037 377.393 144.07L354.628 99.555H334.618V145.955C334.618 146.922 334.232 147.695 333.458 148.275C332.685 148.758 331.863 149 330.993 149C330.027 149 329.157 148.758 328.383 148.275C327.707 147.695 327.368 146.922 327.368 145.955V45.905C327.368 45.1317 327.61 44.5033 328.093 44.02C328.673 43.44 329.447 43.1017 330.413 43.005H355.353C360.767 43.005 365.793 43.875 370.433 45.615C375.073 47.2583 378.795 50.1583 381.598 54.315C384.402 58.375 385.803 63.9817 385.803 71.135C385.803 77.225 384.74 82.2033 382.613 86.07C380.583 89.9367 377.78 92.885 374.203 94.915C370.723 96.8483 366.76 98.1533 362.313 98.83L385.513 143.78C385.707 144.07 385.803 144.36 385.803 144.65C385.9 144.94 385.948 145.182 385.948 145.375C385.948 146.052 385.755 146.68 385.368 147.26C384.982 147.743 384.498 148.178 383.918 148.565C383.338 148.952 382.71 149.145 382.033 149.145ZM334.618 92.885H355.353C362.217 92.885 367.775 91.2417 372.028 87.955C376.378 84.5717 378.553 79.0133 378.553 71.28C378.553 63.6433 376.378 58.1817 372.028 54.895C367.775 51.6083 362.217 49.965 355.353 49.965H334.618V92.885ZM396.786 117.39C396.013 117.39 395.336 117.1 394.756 116.52C394.176 115.843 393.886 115.07 393.886 114.2C393.886 113.233 394.176 112.46 394.756 111.88C395.336 111.203 396.013 110.865 396.786 110.865H434.486C435.356 110.865 436.081 111.203 436.661 111.88C437.338 112.46 437.676 113.233 437.676 114.2C437.676 115.07 437.338 115.843 436.661 116.52C436.081 117.1 435.356 117.39 434.486 117.39H396.786ZM456.883 149C455.916 149 455.046 148.758 454.273 148.275C453.596 147.695 453.258 146.922 453.258 145.955V45.905C453.258 45.1317 453.548 44.5033 454.128 44.02C454.708 43.44 455.481 43.1017 456.448 43.005H482.693C488.106 43.005 492.988 44.02 497.338 46.05C501.784 47.9833 505.264 51.1733 507.778 55.62C510.388 60.0667 511.693 65.9633 511.693 73.31V74.905C511.693 82.2517 510.388 88.1483 507.778 92.595C505.264 97.0417 501.784 100.28 497.338 102.31C492.891 104.34 487.961 105.355 482.548 105.355H460.508V145.955C460.508 146.922 460.121 147.695 459.348 148.275C458.574 148.758 457.753 149 456.883 149ZM460.508 98.685H482.548C489.411 98.685 494.776 96.7517 498.643 92.885C502.509 89.0183 504.443 83.0733 504.443 75.05V73.31C504.443 65.3833 502.509 59.535 498.643 55.765C494.776 51.8983 489.411 49.965 482.548 49.965H460.508V98.685ZM525.72 149C524.754 149 523.932 148.71 523.255 148.13C522.579 147.453 522.24 146.728 522.24 145.955V83.46C522.24 82.59 522.579 81.9133 523.255 81.43C523.932 80.85 524.754 80.56 525.72 80.56C526.784 80.56 527.605 80.85 528.185 81.43C528.862 81.9133 529.2 82.59 529.2 83.46V90.855C530.36 88.9217 531.859 87.1333 533.695 85.49C535.532 83.75 537.707 82.3483 540.22 81.285C542.83 80.2217 545.779 79.69 549.065 79.69H554.285C555.155 79.69 555.88 80.0283 556.46 80.705C557.04 81.285 557.33 82.0583 557.33 83.025C557.33 83.9917 557.04 84.8133 556.46 85.49C555.88 86.07 555.155 86.36 554.285 86.36H549.065C545.779 86.36 542.589 87.23 539.495 88.97C536.499 90.6133 534.034 93.03 532.1 96.22C530.264 99.3133 529.345 103.083 529.345 107.53V145.955C529.345 146.728 529.007 147.453 528.33 148.13C527.654 148.71 526.784 149 525.72 149ZM589.658 149.87C583.761 149.87 578.541 148.758 573.998 146.535C569.551 144.312 566.023 141.218 563.413 137.255C560.803 133.195 559.498 128.458 559.498 123.045V105.79C559.498 101.053 560.706 96.7033 563.123 92.74C565.636 88.7767 568.874 85.635 572.838 83.315C576.898 80.8983 581.344 79.69 586.178 79.69C590.914 79.69 595.264 80.85 599.228 83.17C603.191 85.3933 606.381 88.4867 608.798 92.45C611.311 96.3167 612.568 100.812 612.568 105.935C612.568 109.512 611.939 112.122 610.683 113.765C609.523 115.312 608.024 116.278 606.188 116.665C604.351 116.955 602.369 117.1 600.243 117.1H566.603V123.19C566.603 129.377 568.826 134.307 573.273 137.98C577.719 141.557 583.278 143.345 589.948 143.345C593.911 143.345 596.956 142.862 599.083 141.895C601.209 140.928 602.853 139.962 604.013 138.995C605.173 138.028 606.236 137.545 607.203 137.545C607.879 137.545 608.459 137.738 608.943 138.125C609.426 138.512 609.813 138.995 610.103 139.575C610.393 140.058 610.538 140.542 610.538 141.025C610.538 141.992 609.668 143.2 607.928 144.65C606.284 146.1 603.916 147.357 600.823 148.42C597.729 149.387 594.008 149.87 589.658 149.87ZM566.603 111.155H597.488C600.774 111.155 602.949 110.817 604.013 110.14C605.076 109.463 605.608 108.062 605.608 105.935C605.608 102.648 604.786 99.5067 603.143 96.51C601.596 93.4167 599.324 90.9033 596.328 88.97C593.428 87.0367 590.044 86.07 586.178 86.07C582.504 86.07 579.169 86.94 576.173 88.68C573.273 90.42 570.953 92.74 569.213 95.64C567.473 98.54 566.603 101.73 566.603 105.21V111.155ZM647.682 149.87C643.139 149.87 638.886 148.613 634.922 146.1C630.959 143.587 627.769 140.3 625.352 136.24C623.032 132.083 621.872 127.685 621.872 123.045V106.225C621.872 101.295 623.032 96.8483 625.352 92.885C627.769 88.825 630.959 85.635 634.922 83.315C638.886 80.8983 643.236 79.69 647.972 79.69C652.806 79.69 656.817 80.85 660.007 83.17C663.294 85.3933 665.711 87.9067 667.257 90.71V40.975C667.257 40.0083 667.596 39.2833 668.272 38.8C669.046 38.22 669.916 37.93 670.882 37.93C671.946 37.93 672.767 38.22 673.347 38.8C674.024 39.2833 674.362 40.0083 674.362 40.975V145.955C674.362 146.728 674.024 147.453 673.347 148.13C672.767 148.71 671.946 149 670.882 149C670.012 149 669.191 148.71 668.417 148.13C667.741 147.453 667.402 146.728 667.402 145.955V138.85C665.952 141.847 663.391 144.457 659.717 146.68C656.141 148.807 652.129 149.87 647.682 149.87ZM648.262 143.2C651.936 143.2 655.174 142.282 657.977 140.445C660.877 138.512 663.149 136.337 664.792 133.92C666.436 131.503 667.257 129.522 667.257 127.975V106.225C667.257 102.068 666.339 98.54 664.502 95.64C662.666 92.6433 660.297 90.3717 657.397 88.825C654.594 87.1817 651.597 86.36 648.407 86.36C644.927 86.36 641.689 87.3267 638.692 89.26C635.792 91.1933 633.424 93.6583 631.587 96.655C629.847 99.6517 628.977 102.842 628.977 106.225V123.045C628.977 126.428 629.847 129.667 631.587 132.76C633.424 135.853 635.792 138.367 638.692 140.3C641.592 142.233 644.782 143.2 648.262 143.2ZM694.167 58.955C692.717 58.955 691.412 58.4233 690.252 57.36C689.189 56.2967 688.657 55.04 688.657 53.59C688.657 52.14 689.189 50.9317 690.252 49.965C691.412 48.9983 692.717 48.515 694.167 48.515C695.714 48.515 696.971 48.9983 697.937 49.965C699.001 50.9317 699.532 52.14 699.532 53.59C699.532 55.04 699.001 56.2967 697.937 57.36C696.971 58.4233 695.714 58.955 694.167 58.955ZM694.022 149C693.056 149 692.234 148.71 691.557 148.13C690.881 147.453 690.542 146.728 690.542 145.955V83.46C690.542 82.59 690.881 81.9133 691.557 81.43C692.234 80.85 693.056 80.56 694.022 80.56C695.086 80.56 695.956 80.85 696.632 81.43C697.309 81.9133 697.647 82.59 697.647 83.46V145.955C697.647 146.728 697.309 147.453 696.632 148.13C695.956 148.71 695.086 149 694.022 149ZM738.637 149.87C732.45 149.87 727.327 148.71 723.267 146.39C719.304 144.07 716.307 140.88 714.277 136.82C712.344 132.76 711.377 128.168 711.377 123.045V106.515C711.377 101.488 712.344 96.945 714.277 92.885C716.21 88.7283 719.207 85.49 723.267 83.17C727.327 80.85 732.45 79.69 738.637 79.69C742.6 79.69 746.032 80.2217 748.932 81.285C751.929 82.2517 754.249 83.4117 755.892 84.765C757.535 86.1183 758.357 87.375 758.357 88.535C758.357 89.0183 758.164 89.55 757.777 90.13C757.487 90.71 757.1 91.1933 756.617 91.58C756.134 91.87 755.602 92.015 755.022 92.015C754.152 92.015 753.137 91.5317 751.977 90.565C750.914 89.5983 749.367 88.68 747.337 87.81C745.404 86.8433 742.6 86.36 738.927 86.36C732.257 86.36 727.182 88.1967 723.702 91.87C720.222 95.4467 718.482 100.328 718.482 106.515V123.045C718.482 129.232 720.222 134.162 723.702 137.835C727.182 141.412 732.305 143.2 739.072 143.2C742.939 143.2 745.887 142.717 747.917 141.75C750.044 140.783 751.639 139.817 752.702 138.85C753.862 137.883 754.925 137.4 755.892 137.4C756.569 137.4 757.1 137.593 757.487 137.98C757.97 138.367 758.357 138.802 758.647 139.285C759.034 139.768 759.227 140.3 759.227 140.88C759.227 141.943 758.357 143.2 756.617 144.65C754.974 146.1 752.605 147.357 749.512 148.42C746.515 149.387 742.89 149.87 738.637 149.87ZM791.595 149C784.442 149 778.98 147.357 775.21 144.07C771.44 140.783 769.555 135.563 769.555 128.41V50.4C769.555 49.4333 769.942 48.7083 770.715 48.225C771.488 47.645 772.262 47.355 773.035 47.355C774.002 47.355 774.823 47.645 775.5 48.225C776.273 48.7083 776.66 49.4333 776.66 50.4V80.56H795.945C796.718 80.56 797.347 80.85 797.83 81.43C798.41 82.01 798.7 82.7833 798.7 83.75C798.7 84.5233 798.41 85.2483 797.83 85.925C797.347 86.505 796.718 86.795 795.945 86.795H776.66V128.41C776.66 133.437 777.772 137.013 779.995 139.14C782.315 141.267 786.182 142.33 791.595 142.33H795.22C796.283 142.33 797.105 142.668 797.685 143.345C798.265 143.925 798.555 144.698 798.555 145.665C798.555 146.535 798.265 147.308 797.685 147.985C797.105 148.662 796.283 149 795.22 149H791.595Z" fill="black"/>
<defs>
<clipPath id="clip0_1402_9">
<rect y="26" width="132" height="132" rx="10" fill="white"/>
</clipPath>
</defs>
</svg>
